<svg xmlns="http://www.w3.org/2000/svg" width="24" height="24" viewBox="0 0 24 24">
  <path d="M13 4a2 2 0 1 1-4 0 2 2 0 0 1 4 0z" fill="none" stroke="#000000" stroke-width="1.8" stroke-linecap="round" stroke-linejoin="round"/>
  <path d="M20 8a2 2 0 1 1-4 0 2 2 0 0 1 4 0z" fill="none" stroke="#000000" stroke-width="1.8" stroke-linecap="round" stroke-linejoin="round"/>
  <path d="M22 16a2 2 0 1 1-4 0 2 2 0 0 1 4 0z" fill="none" stroke="#000000" stroke-width="1.8" stroke-linecap="round" stroke-linejoin="round"/>
  <path d="M9 10a5 5 0 0 1 5 5v3.5a3.5 3.5 0 0 1-6.84 1.045Q6.52 17.48 4.46 16.84A3.5 3.5 0 0 1 5.5 10Z" fill="none" stroke="#000000" stroke-width="1.8" stroke-linecap="round" stroke-linejoin="round"/>
</svg>
